<?xml version="1.0" encoding="utf-8"?>
<!-- Generator: Adobe Illustrator 16.0.4, SVG Export Plug-In . SVG Version: 6.00 Build 0)  -->
<!DOCTYPE svg PUBLIC "-//W3C//DTD SVG 1.1//EN" "http://www.w3.org/Graphics/SVG/1.1/DTD/svg11.dtd">
<svg version="1.1" id="Layer_1" xmlns="http://www.w3.org/2000/svg" xmlns:xlink="http://www.w3.org/1999/xlink" x="0px" y="0px"
	 width="128px" height="128px" viewBox="0 0 128 128" enable-background="new 0 0 128 128" xml:space="preserve">
<path fill="#FFFFFF" d="M53.788,108.562c-21.154,2.086-39.416-7.473-40.792-21.363c-1.373-13.888,14.668-26.84,35.82-28.931
	c21.158-2.094,39.419,7.47,40.792,21.354C90.979,93.516,74.945,106.473,53.788,108.562 M96.103,62.456
	c-1.801-0.539-3.035-0.906-2.093-3.27c2.039-5.135,2.252-9.563,0.038-12.724c-4.148-5.925-15.498-5.607-28.509-0.158
	c0-0.008-4.085,1.787-3.041-1.454c2.001-6.434,1.7-11.822-1.415-14.934c-7.058-7.063-25.828,0.267-41.927,16.358
	C7.104,58.332,0.104,71.107,0.104,82.156c0,21.133,27.1,33.98,53.613,33.98c34.753,0,57.874-20.193,57.874-36.225
	C111.591,70.227,103.432,64.729,96.103,62.456"/>
<path fill="#FFFFFF" d="M119.181,23.784c-8.393-9.305-20.771-12.852-32.201-10.422h-0.004c-2.642,0.565-4.327,3.167-3.76,5.807
	c0.561,2.64,3.162,4.329,5.806,3.764c8.13-1.726,16.924,0.801,22.895,7.409c5.961,6.609,7.58,15.625,5.024,23.527l0.004,0.002
	c-0.833,2.575,0.574,5.329,3.152,6.161c2.568,0.831,5.327-0.577,6.16-3.143c0-0.003,0-0.014,0-0.02
	C129.839,45.75,127.577,33.079,119.181,23.784"/>
<path fill="#FFFFFF" d="M106.291,35.415c-4.086-4.531-10.115-6.252-15.685-5.069c-2.276,0.484-3.727,2.725-3.237,5.003
	c0.486,2.267,2.725,3.725,4.993,3.231v0.003c2.721-0.577,5.673,0.263,7.673,2.474c1.998,2.217,2.535,5.237,1.676,7.885h0.003
	c-0.713,2.211,0.498,4.587,2.712,5.305c2.214,0.708,4.588-0.499,5.302-2.714c1.75-5.417,0.657-11.588-3.438-16.119"/>
<path fill="#FFFFFF" d="M54.955,83.408c-0.74,1.268-2.376,1.875-3.657,1.346c-1.261-0.518-1.656-1.932-0.94-3.178
	c0.738-1.236,2.311-1.84,3.567-1.342C55.203,80.703,55.661,82.135,54.955,83.408 M48.214,92.061
	c-2.045,3.264-6.428,4.695-9.729,3.188c-3.252-1.48-4.211-5.273-2.165-8.455c2.021-3.17,6.255-4.584,9.532-3.209
	C49.166,84.996,50.225,88.762,48.214,92.061 M55.902,68.956c-10.067-2.62-21.446,2.397-25.819,11.269
	c-4.453,9.047-0.147,19.09,10.022,22.373c10.537,3.396,22.954-1.811,27.273-11.574C71.637,81.477,66.32,71.648,55.902,68.956"/>
</svg>
